<?xml version="1.0" encoding="utf-8"?>
<!-- Generator: Adobe Illustrator 24.2.3, SVG Export Plug-In . SVG Version: 6.00 Build 0)  -->
<svg version="1.1" id="Livello_1" xmlns="http://www.w3.org/2000/svg" xmlns:xlink="http://www.w3.org/1999/xlink" x="0px" y="0px"
	 viewBox="0 0 30 30" style="enable-background:new 0 0 30 30;" xml:space="preserve">
<style type="text/css">
	.st0{fill:#F3F1E9;}
	.st1{fill:#FFFFFF;}
	.st2{fill-rule:evenodd;clip-rule:evenodd;fill:#FFFFFF;}
</style>
<g>
	<path class="st0" d="M30,7.85v14.3c0,4.32-3.53,7.85-7.85,7.85h-4.81V19.83h3.5l0.66-4.34h-4.16v-2.81c0-1.19,0.58-2.34,2.45-2.34
		h1.89V6.65c0,0-1.72-0.3-3.36-0.3c-3.42,0-5.66,2.08-5.66,5.84v3.3H8.85v4.34h3.81V30H7.85C3.53,30,0,26.47,0,22.15V7.85
		C0,3.53,3.53,0,7.85,0h14.3C26.47,0,30,3.53,30,7.85z"/>
	<g>
		<polygon class="st0" points="17.34,30 12.66,30 14.83,29.39 		"/>
	</g>
</g>
</svg>
