<?xml version="1.0" encoding="utf-8"?>
<!-- Generator: Adobe Illustrator 24.2.3, SVG Export Plug-In . SVG Version: 6.00 Build 0)  -->
<svg version="1.1" id="Livello_1" xmlns="http://www.w3.org/2000/svg" xmlns:xlink="http://www.w3.org/1999/xlink" x="0px" y="0px"
	 viewBox="0 0 30 30" style="enable-background:new 0 0 30 30;" xml:space="preserve">
<style type="text/css">
	.st0{fill:#F3F1E9;}
	.st1{fill:#FFFFFF;}
	.st2{fill-rule:evenodd;clip-rule:evenodd;fill:#FFFFFF;}
</style>
<path class="st0" d="M22.15,0H7.85C3.53,0,0,3.53,0,7.85v14.3C0,26.47,3.53,30,7.85,30h14.3c4.32,0,7.85-3.53,7.85-7.85V7.85
	C30,3.53,26.47,0,22.15,0z M7.99,10h14.02c0.01,0,0.01,0,0.02,0L15,14.22L7.97,10C7.98,10,7.98,10,7.99,10z M23.33,18.67
	c0,0.74-0.59,1.33-1.32,1.33H7.99c-0.73,0-1.32-0.59-1.32-1.33v-7.34c0-0.17,0.03-0.34,0.09-0.49L15,15.78l8.24-4.94
	c0.06,0.15,0.09,0.32,0.09,0.49V18.67z"/>
</svg>
