<?xml version="1.0" encoding="utf-8"?>
<!-- Generator: Adobe Illustrator 24.2.3, SVG Export Plug-In . SVG Version: 6.00 Build 0)  -->
<svg version="1.1" id="Livello_1" xmlns="http://www.w3.org/2000/svg" xmlns:xlink="http://www.w3.org/1999/xlink" x="0px" y="0px"
	 viewBox="0 0 30 30" style="enable-background:new 0 0 30 30;" xml:space="preserve">
<style type="text/css">
	.st0{fill:#F3F1E9;}
	.st1{fill:#FFFFFF;}
	.st2{fill-rule:evenodd;clip-rule:evenodd;fill:#FFFFFF;}
</style>
<path class="st0" d="M22.15,0H7.85C3.53,0,0,3.53,0,7.85v14.3C0,26.47,3.53,30,7.85,30h14.3c4.32,0,7.85-3.53,7.85-7.85V7.85
	C30,3.53,26.47,0,22.15,0z M20.86,19.03c0,0.32,0,0.61-0.07,0.94c-0.07,0.31-0.19,0.61-0.37,0.87c-0.19,0.27-0.43,0.48-0.7,0.65
	c-0.28,0.16-0.58,0.26-0.89,0.32c-0.59,0.12-0.99,0.15-1.37,0.07c-0.36-0.07-0.67-0.24-0.92-0.47c-0.36-0.33-0.59-0.79-0.64-1.26
	c-0.06-0.55,0.12-1.15,0.54-1.59c0.21-0.22,0.47-0.39,0.83-0.53c0.37-0.14,0.77-0.23,1.4-0.35c0.17-0.03,0.33-0.07,0.5-0.1
	c0.21-0.04,0.4-0.1,0.55-0.28c0.15-0.19,0.15-0.42,0.15-0.64v-5.62c0-0.43-0.19-0.54-0.6-0.46c-0.29,0.05-6.6,1.32-6.6,1.32
	c-0.35,0.09-0.48,0.21-0.48,0.65v8.23c0,0.32-0.02,0.62-0.08,0.94c-0.07,0.32-0.19,0.61-0.38,0.88c-0.18,0.26-0.42,0.48-0.7,0.64
	c-0.28,0.17-0.57,0.26-0.88,0.33c-0.59,0.11-0.99,0.14-1.37,0.07c-0.36-0.08-0.67-0.25-0.92-0.47c-0.37-0.34-0.58-0.79-0.63-1.26
	c-0.06-0.56,0.11-1.15,0.53-1.59c0.21-0.22,0.47-0.4,0.83-0.53c0.36-0.15,0.77-0.23,1.4-0.36c0.17-0.03,0.33-0.07,0.5-0.1
	c0.21-0.04,0.4-0.1,0.55-0.28c0.15-0.18,0.16-0.4,0.16-0.62c0-1.74,0-9.49,0-9.49c0-0.13,0.02-0.21,0.02-0.26
	c0.03-0.2,0.11-0.37,0.26-0.49c0.12-0.1,0.27-0.17,0.47-0.21l7.59-1.54c0.07-0.01,0.62-0.11,0.68-0.12
	c0.41-0.03,0.64,0.24,0.64,0.67V19.03z"/>
</svg>
