<?xml version="1.0" encoding="utf-8"?>
<!-- Generator: Adobe Illustrator 24.2.3, SVG Export Plug-In . SVG Version: 6.00 Build 0)  -->
<svg version="1.1" id="Livello_1" xmlns="http://www.w3.org/2000/svg" xmlns:xlink="http://www.w3.org/1999/xlink" x="0px" y="0px"
	 viewBox="0 0 30 30" style="enable-background:new 0 0 30 30;" xml:space="preserve">
<style type="text/css">
	.st0{fill:#F3F1E9;}
	.st1{fill:#FFFFFF;}
	.st2{fill-rule:evenodd;clip-rule:evenodd;fill:#FFFFFF;}
</style>
<g>
	<g>
		<path class="st0" d="M17.34,15.47L13.5,17.2c-0.34,0.15-0.73-0.1-0.73-0.47v-3.46c0-0.37,0.39-0.62,0.73-0.47l3.84,1.73
			C17.74,14.71,17.74,15.29,17.34,15.47z"/>
		<path class="st0" d="M22.15,0H7.85C3.53,0,0,3.53,0,7.85v14.3C0,26.47,3.53,30,7.85,30h14.3c4.32,0,7.85-3.53,7.85-7.85V7.85
			C30,3.53,26.47,0,22.15,0z M23.03,17.11c0,1.98-1.61,3.6-3.6,3.6h-9.21c-1.99,0-3.6-1.62-3.6-3.6v-4.29c0-1.99,1.61-3.6,3.6-3.6
			h9.21c1.99,0,3.6,1.61,3.6,3.6V17.11z"/>
		<path class="st0" d="M17.34,14.53L13.5,12.8c-0.34-0.15-0.73,0.1-0.73,0.47v3.46c0,0.37,0.39,0.62,0.73,0.47l3.84-1.73
			C17.74,15.29,17.74,14.71,17.34,14.53z"/>
	</g>
	<path class="st0" d="M17.34,15.47L13.5,17.2c-0.34,0.15-0.73-0.1-0.73-0.47v-3.46c0-0.37,0.39-0.62,0.73-0.47l3.84,1.73
		C17.74,14.71,17.74,15.29,17.34,15.47z"/>
</g>
</svg>
