<?xml version="1.0" encoding="utf-8"?>
<!-- Generator: Adobe Illustrator 24.2.3, SVG Export Plug-In . SVG Version: 6.00 Build 0)  -->
<svg version="1.1" id="Livello_1" xmlns="http://www.w3.org/2000/svg" xmlns:xlink="http://www.w3.org/1999/xlink" x="0px" y="0px"
	 viewBox="0 0 30 30" style="enable-background:new 0 0 30 30;" xml:space="preserve">
<style type="text/css">
	.st0{fill:#F3F1E9;}
	.st1{fill:#FFFFFF;}
	.st2{fill-rule:evenodd;clip-rule:evenodd;fill:#FFFFFF;}
</style>
<g>
	<path class="st0" d="M22.15,0H7.85C3.53,0,0,3.53,0,7.85v14.3C0,26.47,3.53,30,7.85,30h14.3c4.32,0,7.85-3.53,7.85-7.85V7.85
		C30,3.53,26.47,0,22.15,0z M20.78,21c-0.17,0.28-0.47,0.45-0.78,0.45c-0.16,0-0.32-0.04-0.46-0.13c-2.39-1.39-5.15-1.62-7.04-1.56
		c-2.1,0.06-3.64,0.48-3.65,0.48c-0.49,0.13-0.98-0.15-1.12-0.63c-0.13-0.49,0.15-0.99,0.64-1.12c0.07-0.02,1.72-0.47,4.02-0.54
		c1.36-0.05,2.67,0.04,3.88,0.28c1.55,0.29,2.95,0.8,4.19,1.52C20.89,20.01,21.04,20.56,20.78,21z M22.47,17.49
		c-0.2,0.34-0.56,0.53-0.93,0.53c-0.18,0-0.37-0.05-0.54-0.15c-2.83-1.65-6.1-1.91-8.34-1.85c-2.48,0.08-4.31,0.57-4.32,0.57
		c-0.58,0.16-1.17-0.18-1.33-0.75c-0.15-0.57,0.18-1.16,0.76-1.32c0.08-0.02,2.04-0.56,4.76-0.65c1.61-0.05,3.16,0.06,4.6,0.34
		c1.83,0.34,3.49,0.95,4.95,1.81C22.6,16.32,22.77,16.97,22.47,17.49z M24.65,13.64c-0.25,0.42-0.69,0.66-1.14,0.66
		c-0.23,0-0.46-0.06-0.67-0.18c-6.72-3.93-15.44-1.6-15.53-1.57c-0.7,0.19-1.43-0.22-1.62-0.92C5.5,10.92,5.91,10.2,6.61,10
		c0.1-0.02,2.51-0.68,5.85-0.79c1.97-0.06,3.87,0.07,5.64,0.41c2.24,0.43,4.29,1.17,6.08,2.22C24.81,12.21,25.02,13.01,24.65,13.64z
		"/>
</g>
</svg>
