<?xml version="1.0" encoding="utf-8"?>
<!-- Generator: Adobe Illustrator 24.2.3, SVG Export Plug-In . SVG Version: 6.00 Build 0)  -->
<svg version="1.1" id="Livello_1" xmlns="http://www.w3.org/2000/svg" xmlns:xlink="http://www.w3.org/1999/xlink" x="0px" y="0px"
	 viewBox="0 0 30 30" style="enable-background:new 0 0 30 30;" xml:space="preserve">
<style type="text/css">
	.st0{fill:#F3F1E9;}
	.st1{fill:#FFFFFF;}
	.st2{fill-rule:evenodd;clip-rule:evenodd;fill:#FFFFFF;}
</style>
<g>
	<path class="st0" d="M22.15,0H7.85C3.53,0,0,3.53,0,7.85v14.3C0,26.47,3.53,30,7.85,30h14.3c4.32,0,7.85-3.53,7.85-7.85V7.85
		C30,3.53,26.47,0,22.15,0z M23.03,13.21c-0.15,0.01-0.31,0.02-0.46,0.02c-1.69,0-3.27-0.85-4.19-2.26v7.71
		c0,3.15-2.56,5.71-5.71,5.71c-3.15,0-5.7-2.56-5.7-5.71c0-3.15,2.55-5.7,5.7-5.7c0.12,0,0.24,0.01,0.35,0.02v2.81
		c-0.11-0.02-0.23-0.04-0.35-0.04c-1.61,0-2.91,1.31-2.91,2.91c0,1.61,1.3,2.92,2.91,2.92c1.61,0,3.03-1.27,3.03-2.88l0.03-13.11
		h2.69c0.25,2.41,2.2,4.3,4.61,4.47V13.21z"/>
</g>
</svg>
