<?xml version="1.0" encoding="utf-8"?>
<!-- Generator: Adobe Illustrator 24.2.3, SVG Export Plug-In . SVG Version: 6.00 Build 0)  -->
<svg version="1.1" id="Livello_1" xmlns="http://www.w3.org/2000/svg" xmlns:xlink="http://www.w3.org/1999/xlink" x="0px" y="0px"
	 viewBox="0 0 30 30" style="enable-background:new 0 0 30 30;" xml:space="preserve">
<style type="text/css">
	.st0{fill:#F3F1E9;}
	.st1{fill:#FFFFFF;}
	.st2{fill-rule:evenodd;clip-rule:evenodd;fill:#FFFFFF;}
</style>
<path class="st0" d="M18.51,7.86h-7.02c-2,0-3.63,1.63-3.63,3.63v7.02c0,2,1.63,3.63,3.63,3.63h7.02c2,0,3.63-1.63,3.63-3.63v-7.02
	C22.14,9.49,20.51,7.86,18.51,7.86z M15.07,19.33c-2.39,0-4.33-1.94-4.33-4.33s1.94-4.33,4.33-4.33S19.4,12.61,19.4,15
	S17.46,19.33,15.07,19.33z M19.66,11.41c-0.57,0-1.03-0.46-1.03-1.03s0.46-1.03,1.03-1.03c0.57,0,1.03,0.46,1.03,1.03
	S20.23,11.41,19.66,11.41z M15.07,12.23c-1.53,0-2.77,1.24-2.77,2.77c0,1.53,1.24,2.77,2.77,2.77c1.53,0,2.78-1.24,2.78-2.77
	C17.85,13.47,16.6,12.23,15.07,12.23z"/>
<path class="st0" d="M22.15,0H7.85C3.53,0,0,3.53,0,7.85v14.3C0,26.47,3.53,30,7.85,30h14.3c4.32,0,7.85-3.53,7.85-7.85V7.85
	C30,3.53,26.47,0,22.15,0z M23.79,18.51c0,2.91-2.37,5.28-5.28,5.28h-7.02c-2.91,0-5.28-2.37-5.28-5.28v-7.02
	c0-2.91,2.37-5.28,5.28-5.28h7.02c2.91,0,5.28,2.37,5.28,5.28V18.51z"/>
</svg>
