<svg width="32" height="32" viewBox="0 0 32 32" fill="none" xmlns="http://www.w3.org/2000/svg">
    <path d="M23.8667 14.5334C19.6 12 12.4667 11.7334 8.4 13C7.73333 13.2 7.06667 12.8 6.86667 12.2C6.66667 11.5334 7.06667 10.8667 7.66667 10.6667C12.4 9.26669 20.2 9.53335 25.1333 12.4667C25.7333 12.8 25.9333 13.6 25.6 14.2C25.2667 14.6667 24.4667 14.8667 23.8667 14.5334ZM23.7333 18.2667C23.4 18.7334 22.8 18.9334 22.3333 18.6C18.7333 16.4 13.2667 15.7334 9.06667 17.0667C8.53333 17.2 7.93333 16.9334 7.8 16.4C7.66667 15.8667 7.93333 15.2667 8.46667 15.1334C13.3333 13.6667 19.3333 14.4 23.4667 16.9334C23.8667 17.1334 24.0667 17.8 23.7333 18.2667ZM22.1333 21.9334C21.8667 22.3334 21.4 22.4667 21 22.2C17.8667 20.2667 13.9333 19.8667 9.26667 20.9334C8.8 21.0667 8.4 20.7334 8.26667 20.3334C8.13333 19.8667 8.46667 19.4667 8.86667 19.3334C13.9333 18.2 18.3333 18.6667 21.8 20.8C22.2667 21 22.3333 21.5334 22.1333 21.9334ZM16 2.66669C14.249 2.66669 12.5152 3.01156 10.8976 3.68163C9.27988 4.35169 7.81002 5.33382 6.57191 6.57193C4.07142 9.07241 2.66667 12.4638 2.66667 16C2.66667 19.5362 4.07142 22.9276 6.57191 25.4281C7.81002 26.6662 9.27988 27.6484 10.8976 28.3184C12.5152 28.9885 14.249 29.3334 16 29.3334C19.5362 29.3334 22.9276 27.9286 25.4281 25.4281C27.9286 22.9276 29.3333 19.5362 29.3333 16C29.3333 14.2491 28.9885 12.5152 28.3184 10.8976C27.6483 9.2799 26.6662 7.81004 25.4281 6.57193C24.19 5.33382 22.7201 4.35169 21.1024 3.68163C19.4848 3.01156 17.751 2.66669 16 2.66669Z" fill="#fc563d"/>
</svg>
