<svg width="35" height="35" viewBox="0 0 35 35" fill="none" xmlns="http://www.w3.org/2000/svg">
    <path d="M14.5833 21.875L22.1521 17.5L14.5833 13.125V21.875ZM31.4417 10.4563C31.6313 11.1417 31.7625 12.0604 31.85 13.2271C31.9521 14.3938 31.9958 15.4 31.9958 16.275L32.0833 17.5C32.0833 20.6938 31.85 23.0417 31.4417 24.5438C31.0771 25.8563 30.2313 26.7021 28.9188 27.0667C28.2333 27.2563 26.9792 27.3875 25.0542 27.475C23.1583 27.5771 21.4229 27.6209 19.8188 27.6209L17.5 27.7084C11.3896 27.7084 7.58333 27.475 6.08125 27.0667C4.76875 26.7021 3.92292 25.8563 3.55833 24.5438C3.36875 23.8584 3.2375 22.9396 3.15 21.7729C3.04792 20.6063 3.00417 19.6 3.00417 18.725L2.91667 17.5C2.91667 14.3063 3.15 11.9584 3.55833 10.4563C3.92292 9.14377 4.76875 8.29794 6.08125 7.93335C6.76667 7.74377 8.02083 7.61252 9.94584 7.52502C11.8417 7.42294 13.5771 7.37919 15.1813 7.37919L17.5 7.29169C23.6104 7.29169 27.4167 7.52502 28.9188 7.93335C30.2313 8.29794 31.0771 9.14377 31.4417 10.4563Z" fill="#F7FDF4"/>
</svg>
